<?xml version="1.0" encoding="UTF-8"?>
<svg version="1.1" xmlns="http://www.w3.org/2000/svg" width="1834" height="1797">
<path d="M0 0 C2.31 0 4.62 0 7 0 C7 25.74 7 51.48 7 78 C13.78654365 77.99907821 20.57308729 77.99815641 27.56528378 77.99720669 C61.00372758 77.99269703 94.4421714 77.98836259 127.88061523 77.98413086 C129.06326055 77.98398116 129.06326055 77.98398116 130.26979769 77.98382844 C214.72446641 77.97314451 299.17913515 77.96392052 383.63380432 77.95765686 C385.50904299 77.95751741 387.38428167 77.95737796 389.25952034 77.95723851 C428.61831674 77.95431604 467.97711316 77.9515993 507.3359096 77.94912032 C527.1061323 77.94787489 546.876355 77.94658992 566.64657769 77.94526756 C569.62890475 77.94506831 572.61123182 77.94487019 575.59355888 77.94467212 C621.53576146 77.9416109 667.47796377 77.93769977 713.42016602 77.93133545 C714.90269199 77.9311301 714.90269199 77.9311301 716.41516798 77.9309206 C732.35105247 77.92870814 748.28693695 77.92642457 764.22282143 77.92413156 C810.10401 77.91753082 855.98519837 77.91145292 901.86638737 77.90886021 C902.80921845 77.90880667 903.75204954 77.90875314 904.72345126 77.90869798 C925.41722345 77.90753241 946.11099564 77.90663747 966.80476785 77.90599902 C975.13031849 77.90573738 983.45586912 77.90543676 991.78141975 77.90512276 C992.69263434 77.90508933 993.60384892 77.9050559 994.54267606 77.90502146 C1023.93780774 77.90392371 1053.33293791 77.89964822 1082.72806898 77.89371779 C1112.32112485 77.8877619 1141.91417927 77.8848983 1171.50723576 77.88637601 C1175.59022092 77.88657911 1179.67320609 77.88674649 1183.75619125 77.88689232 C1184.95683677 77.88693714 1184.95683677 77.88693714 1186.18173776 77.88698287 C1198.89170032 77.88736455 1211.6016598 77.88437003 1224.31162152 77.87999014 C1236.78825426 77.87575926 1249.26488296 77.87504945 1261.74151608 77.87816819 C1268.42455106 77.87973989 1275.10757788 77.87956953 1281.79061239 77.87511682 C1287.85583816 77.87110611 1293.92104532 77.87159481 1299.98627077 77.87586002 C1302.18074074 77.87658135 1304.37521204 77.87558282 1306.56968033 77.87276476 C1309.52352998 77.86920845 1312.4773116 77.8716793 1315.43115896 77.8758015 C1316.29688665 77.87329263 1317.16261435 77.87078375 1318.05457621 77.86819885 C1323.88584499 77.88584499 1323.88584499 77.88584499 1325 79 C1325 84.94 1325 90.88 1325 97 C1382.42 97 1439.84 97 1499 97 C1499.020625 115.954375 1499.04125 134.90875 1499.0625 154.4375 C1499.071604 160.43220459 1499.08070801 166.42690918 1499.09008789 172.60327148 C1499.09460449 179.89855957 1499.09460449 179.89855957 1499.09544373 183.30897522 C1499.09698379 185.70143316 1499.10050997 188.09389031 1499.10557556 190.48634338 C1499.11284898 194.10085406 1499.11390755 197.71531713 1499.11352539 201.32983398 C1499.1171235 202.40359756 1499.12072161 203.47736113 1499.12442875 204.58366299 C1499.12305125 205.55064145 1499.12167376 206.51761992 1499.12025452 207.51390076 C1499.12117631 208.36102851 1499.1220981 209.20815626 1499.12304783 210.08095455 C1499 212 1499 212 1498 213 C1495.77241743 213.09703132 1493.54169074 213.12186673 1491.31199646 213.12025452 C1490.60468748 213.12110894 1489.89737849 213.12196337 1489.1686359 213.12284368 C1486.78093718 213.12450055 1484.39330757 213.11897377 1482.00561523 213.11352539 C1480.30105593 213.11324354 1478.59649649 213.11340122 1476.89193726 213.1139679 C1472.249572 213.11425594 1467.60723235 213.10835806 1462.96487308 213.10139394 C1458.11884105 213.09516159 1453.27280849 213.0945567 1448.42677307 213.09336853 C1439.24344036 213.09025486 1430.0601195 213.082041 1420.87679201 213.07201904 C1410.42473229 213.060859 1399.97267202 213.05534773 1389.52060783 213.05032361 C1368.01373175 213.03985841 1346.50686704 213.02205791 1325 213 C1325 221.25 1325 229.5 1325 238 C1315.43 238 1305.86 238 1296 238 C1296 283.54 1296 329.08 1296 376 C1304.91 376 1313.82 376 1323 376 C1321.87500648 383.87495467 1321.87500648 383.87495467 1320.59912109 387.30883789 C1320.31212341 388.09173187 1320.02512573 388.87462585 1319.72943115 389.6812439 C1319.41395325 390.51990997 1319.09847534 391.35857605 1318.7734375 392.22265625 C1318.43830139 393.13060944 1318.10316528 394.03856262 1317.75787354 394.97402954 C1316.63684935 398.00601039 1315.50591297 401.03419513 1314.375 404.0625 C1313.57017907 406.23324941 1312.76599557 408.40423525 1311.96240234 410.57543945 C1310.22959367 415.25328923 1308.49244265 419.92949486 1306.75195312 424.60449219 C1304.19522885 431.47235425 1301.64687362 438.34329644 1299.10105133 445.21520424 C1294.98858093 456.31573202 1290.87105048 467.41437371 1286.75 478.51171875 C1281.36794938 493.00520185 1275.99416348 507.50173738 1270.625 522 C1270.21316467 523.11200775 1269.80132935 524.2240155 1269.37701416 525.36972046 C1263.39884755 541.51235954 1257.42892767 557.65803531 1251.46359253 573.80541992 C1243.17205705 596.24899642 1234.86027897 618.68506742 1226.54833984 641.12109375 C1224.02796087 647.92434605 1221.50804332 654.72776919 1218.98828125 661.53125 C1218.5763855 662.64338867 1218.16448975 663.75552734 1217.7401123 664.90136719 C1216.49340024 668.26757517 1215.24669812 671.63378685 1214 675 C1209.39143438 687.44360118 1204.78284573 699.88719371 1200.17300415 712.33032227 C1191.94096883 734.55070644 1183.71158437 756.77204886 1175.5 779 C1166.86325646 802.37881518 1158.20660627 825.75024244 1149.54833984 849.12109375 C1145.7805431 859.29149753 1142.01379612 869.4622901 1138.24697876 879.63305664 C1136.16469634 885.25538733 1134.08234464 890.87769235 1132 896.5 C1131.16666634 898.74999988 1130.333333 900.99999988 1129.5 903.25 C1127.83333333 907.75 1126.16666667 912.25 1124.5 916.75 C1123.88127266 918.42056458 1123.88127266 918.42056458 1123.25004578 920.12487793 C1122.41656118 922.37528532 1121.58307526 924.62569222 1120.74958801 926.87609863 C1118.66855814 932.49486152 1116.58755116 938.11363288 1114.5065918 943.73242188 C1110.72912655 953.93186922 1106.95148354 964.13125057 1103.17300415 974.33032227 C1094.94096883 996.55070644 1086.71158437 1018.77204886 1078.5 1041 C1069.86325646 1064.37881518 1061.20660627 1087.75024244 1052.54833984 1111.12109375 C1050.02796087 1117.92434605 1047.50804332 1124.72776919 1044.98828125 1131.53125 C1044.5763855 1132.64338867 1044.16448975 1133.75552734 1043.7401123 1134.90136719 C1042.49340024 1138.26757517 1041.24669812 1141.63378685 1040 1145 C1035.39143438 1157.44360118 1030.78284573 1169.88719371 1026.17300415 1182.33032227 C1017.94096883 1204.55070644 1009.71158437 1226.77204886 1001.5 1249 C992.86325646 1272.37881518 984.20660627 1295.75024244 975.54833984 1319.12109375 C973.02796087 1325.92434605 970.50804332 1332.72776919 967.98828125 1339.53125 C967.5763855 1340.64338867 967.16448975 1341.75552734 966.7401123 1342.90136719 C965.49340024 1346.26757517 964.24669812 1349.63378685 963 1353 C958.39146064 1365.44353028 953.78290479 1377.88705433 949.17308044 1390.33010864 C947.47438542 1394.91533438 945.77579766 1399.50059984 944.07723999 1404.08587646 C943.23582374 1406.35725165 942.39437287 1408.628614 941.55288696 1410.89996338 C937.19319835 1422.66803231 932.83649526 1434.43718077 928.4921875 1446.2109375 C921.5324423 1465.07146757 914.55320694 1483.9241845 907.5 1502.75 C907.17381683 1503.62154724 906.84763367 1504.49309448 906.51156616 1505.39105225 C905.60272743 1507.81847055 904.69231067 1510.24528989 903.78125 1512.671875 C903.51234451 1513.39027557 903.24343903 1514.10867615 902.96638489 1514.84884644 C901.11543993 1519.76912014 901.11543993 1519.76912014 900 1522 C855.12 1522 810.24 1522 764 1522 C761.00405499 1514.80973197 758.06263669 1507.68518696 755.390625 1500.3828125 C755.06684875 1499.50454803 754.74307251 1498.62628357 754.40948486 1497.72140503 C753.35399853 1494.85678645 752.30201619 1491.99089457 751.25 1489.125 C750.4983158 1487.08323431 749.74635721 1485.04156962 748.99414062 1483 C747.43448803 1478.76633936 745.8760066 1474.5322504 744.31835938 1470.29785156 C741.0719186 1461.47529486 737.81107795 1452.65806719 734.55041504 1443.84075928 C732.78293427 1439.06075593 731.01652472 1434.28035674 729.25 1429.5 C728.54167172 1427.58333146 727.83333839 1425.6666648 727.125 1423.75 C656.99997028 1233.99991957 656.99997028 1233.99991957 483.81243896 765.37483215 C483.10431142 763.45872411 482.39618154 761.54261693 481.68804932 759.62651062 C479.9140483 754.82630406 478.14008821 750.02608237 476.36621094 745.22583008 C473.21660361 736.70286214 470.06676511 728.17998022 466.91529846 719.65769958 C465.53956815 715.93737065 464.16402159 712.21697379 462.7885437 708.49655151 C462.09777004 706.62814791 461.40695399 704.75975998 460.71609497 702.89138794 C456.55125209 691.62696724 452.3943801 680.35964321 448.24803543 669.08839989 C447.54269841 667.17114015 446.83721461 665.25393448 446.13168335 663.33674622 C445.66168031 662.05954046 445.19167909 660.78233404 444.72167969 659.50512695 C444.48941744 658.8739713 444.25715519 658.24281565 444.01785469 657.59253407 C442.44582816 653.32022174 440.87559507 649.04725262 439.30566406 644.77416992 C435.47493149 634.35621357 431.62881249 623.94459597 427.69140625 613.56640625 C427.38992172 612.76879379 427.08843719 611.97118134 426.77781677 611.1493988 C425.10734948 606.76925033 423.35385483 602.43369005 421.53588867 598.11254883 C419.11618401 592.33851214 416.89390478 586.50836552 414.734375 580.6328125 C414.1486245 579.04851944 414.1486245 579.04851944 413.55104065 577.43222046 C412.28169982 573.99733462 411.01583403 570.56117954 409.75 567.125 C408.85594598 564.70368996 407.96165546 562.28246724 407.06713867 559.86132812 C405.24772144 554.93570075 403.42964995 550.00958012 401.61279297 545.08300781 C399.24620799 538.66619067 396.87601381 532.2507149 394.50390625 525.8359375 C393.79841677 523.92798016 393.0929317 522.0200212 392.38745117 520.11206055 C392.04442963 519.18436859 391.70140808 518.25667664 391.34799194 517.3008728 C389.61412658 512.61098955 387.88121058 507.92075566 386.1484375 503.23046875 C385.80735458 502.30722305 385.46627167 501.38397736 385.11485291 500.43275452 C383.00951747 494.73364124 380.90490495 489.03426136 378.8006134 483.33476257 C371.64908191 463.96540913 364.48999897 444.59890859 357.29421997 425.24594116 C356.60981402 423.40522379 355.9256225 421.56442668 355.2416687 419.72354126 C354.29211488 417.16826246 353.34164942 414.61332555 352.390625 412.05859375 C352.09672379 411.26852432 351.80282257 410.4784549 351.50001526 409.66444397 C349.33924502 403.87091251 347.11298944 398.10582272 344.83886719 392.35571289 C344 390 344 390 344 388 C321.23 388 298.46 388 275 388 C277.990625 396.085 280.98125 404.17 284.0625 412.5 C291.98426166 433.96162542 299.78848152 455.46208704 307.5 477 C315.26510281 498.68685448 323.13785422 520.32919395 331.12890625 541.93408203 C337.54398911 559.28113632 343.86093637 576.66032255 350.10064697 594.07116699 C356.03558507 610.62435995 362.08722513 627.13208326 368.1875 643.625 C375.73923412 664.04347992 383.16108205 684.5043251 390.5 705 C398.17683992 726.43896211 405.95779729 747.83540634 413.859375 769.19287109 C420.90297806 788.23658856 427.82537993 807.32144693 434.69333649 826.42894745 C441.52096438 845.42275163 448.43405276 864.38262511 455.4375 883.3125 C463.15657528 904.17753526 470.72932957 925.09114099 478.2289238 946.03570938 C485.22079435 965.56092867 492.30113802 985.04985202 499.5 1004.5 C507.01067745 1024.79307267 514.3898817 1045.12963988 521.6875 1065.5 C528.78267149 1085.30427395 535.93294076 1105.08570841 543.21234131 1124.82324219 C549.3103036 1141.35906858 555.32609182 1157.92348022 561.3125 1174.5 C568.25963218 1193.73600697 575.28127563 1212.94259052 582.375 1232.125 C590.11290713 1253.05059645 597.70535192 1274.02472015 605.22649002 1295.02885437 C612.75024858 1316.0390309 620.38708847 1337.00303239 628.12890625 1357.93408203 C634.53853385 1375.26638473 640.8513129 1392.63038489 647.08453369 1410.02685547 C651.51929951 1422.39895062 655.99681288 1434.75435641 660.54296875 1447.0859375 C660.77821384 1447.72405617 661.01345894 1448.36217484 661.25583267 1449.01963043 C663.77645029 1455.85494415 666.30304579 1462.68803166 668.83398438 1469.51953125 C670.86120068 1474.99453176 672.87916177 1480.47282397 674.88568115 1485.95544434 C675.6226358 1487.96896089 676.36157683 1489.98175165 677.1026001 1491.99377441 C678.1164504 1494.75526742 679.1170125 1497.52118602 680.11328125 1500.2890625 C680.40953903 1501.09056732 680.70579681 1501.89207214 681.0110321 1502.71786499 C682.15221018 1505.92696055 683.01372401 1508.4069595 682.93432617 1511.83789062 C683.04153442 1516.99982813 685.12497308 1521.5131463 686.9375 1526.3046875 C687.33702881 1527.38380402 687.73655762 1528.46292053 688.14819336 1529.57473755 C689.42303343 1533.01162148 690.71130672 1536.44328955 692 1539.875 C692.86807869 1542.20800193 693.73527657 1544.54133179 694.6015625 1546.875 C696.72417909 1552.58717429 698.85783905 1558.29512845 701 1564 C704.74455962 1564 706.49704576 1563.61662564 709.88867188 1562.31591797 C710.85647583 1561.94908905 711.82427979 1561.58226013 712.82141113 1561.20431519 C713.86003296 1560.80431305 714.89865479 1560.40431091 715.96875 1559.9921875 C718.17038568 1559.16226355 720.37221457 1558.332852 722.57421875 1557.50390625 C726.04621384 1556.18867453 729.51624486 1554.86877125 732.98291016 1553.53955078 C736.32742726 1552.26027655 739.67861641 1551.00000752 743.03125 1549.7421875 C744.06987183 1549.3381369 745.10849365 1548.9340863 746.17858887 1548.51779175 C747.14639282 1548.15726715 748.11419678 1547.79674255 749.11132812 1547.42529297 C749.9608606 1547.10108368 750.81039307 1546.77687439 751.68566895 1546.44284058 C754.50798657 1545.90279823 755.62520442 1546.47364509 758 1548 C756.33333333 1558 754.66666667 1568 753 1578 C752.82976318 1579.03656738 752.65952637 1580.07313477 752.48413086 1581.14111328 C751.74126891 1585.52785731 750.86766538 1589.8865234 750 1594.25 C749.82210938 1595.16007812 749.64421875 1596.07015625 749.4609375 1597.0078125 C749.28820313 1597.87664062 749.11546875 1598.74546875 748.9375 1599.640625 C748.70353516 1600.82446777 748.70353516 1600.82446777 748.46484375 1602.03222656 C748 1604 748 1604 747 1606 C746.7961236 1607.5998634 746.63493288 1609.20535297 746.5 1610.8125 C746.1783013 1614.27694759 745.78332714 1617.60558241 745 1621 C743.77308929 1626.32337292 742.7296136 1631.58001325 742 1637 C741.5625 1639.875 741.5625 1639.875 741 1642 C740.34 1642.33 739.68 1642.66 739 1643 C739.309375 1644.2684375 739.309375 1644.2684375 739.625 1645.5625 C740.0596819 1649.54708411 739.23545908 1652.22094869 738 1656 C738 1656.66 738 1657.32 738 1658 C737.34 1658 736.68 1658 736 1658 C736.185625 1658.886875 736.37125 1659.77375 736.5625 1660.6875 C737.00089838 1664.006802 736.81899423 1665.79847708 736 1669 C735.70540548 1670.3326895 735.41413005 1671.66611431 735.125 1673 C734.01745002 1677.97148374 732.85185058 1682.92919363 731.68359375 1687.88671875 C731.0183577 1690.91639379 730.50130263 1693.93931614 730 1697 C727.34163088 1712.70409459 724.59350791 1728.39095067 721.75 1744.0625 C721.61953278 1744.78386139 721.48906555 1745.50522278 721.35464478 1746.2484436 C720.98275478 1748.30263018 720.60892753 1750.35645367 720.234375 1752.41015625 C719.91291504 1754.17564819 719.91291504 1754.17564819 719.58496094 1755.97680664 C719.12619588 1758.34779482 718.61049323 1760.66549218 718 1763 C717.63589523 1764.70624281 717.28211002 1766.41471326 716.9375 1768.125 C716.76089844 1768.99382812 716.58429688 1769.86265625 716.40234375 1770.7578125 C715.94112618 1772.94842624 715.94112618 1772.94842624 716 1775 C714.02 1775.33 712.04 1775.66 710 1776 C709.7525 1775.360625 709.505 1774.72125 709.25 1774.0625 C708.18437567 1771.81258459 708.18437567 1771.81258459 705.875 1771.25 C705.25625 1771.1675 704.6375 1771.085 704 1771 C704 1770.34 704 1769.68 704 1769 C703.01 1769 702.02 1769 701 1769 C699.29006566 1767.3777546 697.62652316 1765.70586575 696 1764 C695.236875 1763.443125 694.47375 1762.88625 693.6875 1762.3125 C692.8521875 1761.6628125 692.8521875 1761.6628125 692 1761 C692 1760.34 692 1759.68 692 1759 C691.01 1759 690.02 1759 689 1759 C689 1758.34 689 1757.68 689 1757 C688.34 1757 687.68 1757 687 1757 C687 1756.34 687 1755.68 687 1755 C686.01 1755 685.02 1755 684 1755 C682.6256709 1753.70896357 681.29103643 1752.3743291 680 1751 C679.34 1750.67 678.68 1750.34 678 1750 C678 1749.01 678 1748.02 678 1747 C677.4225 1746.896875 676.845 1746.79375 676.25 1746.6875 C673.64338842 1745.89103535 672.0264689 1744.80934723 670 1743 C670 1742.34 670 1741.68 670 1741 C668.68 1740.67 667.36 1740.34 666 1740 C666 1739.34 666 1738.68 666 1738 C665.01 1738 664.02 1738 663 1738 C661.29006566 1736.3777546 659.62652316 1734.70586575 658 1733 C657.236875 1732.443125 656.47375 1731.88625 655.6875 1731.3125 C654.8521875 1730.6628125 654.8521875 1730.6628125 654 1730 C654 1729.34 654 1728.68 654 1728 C653.34 1728 652.68 1728 652 1728 C652 1727.34 652 1726.68 652 1726 C651.01 1726 650.02 1726 649 1726 C649 1725.34 649 1724.68 649 1724 C648.34 1724 647.68 1724 647 1724 C647 1723.34 647 1722.68 647 1722 C645.824375 1721.5359375 645.824375 1721.5359375 644.625 1721.0625 C642 1720 642 1720 640 1719 C640 1718.01 640 1717.02 640 1716 C639.443125 1715.9175 638.88625 1715.835 638.3125 1715.75 C635.26322081 1714.76104459 633.34810037 1713.15242534 631 1711 C631 1710.34 631 1709.68 631 1709 C630.01 1709 629.02 1709 628 1709 C628 1708.34 628 1707.68 628 1707 C627.34 1707 626.68 1707 626 1707 C626 1706.34 626 1705.68 626 1705 C625.443125 1704.7525 624.88625 1704.505 624.3125 1704.25 C621.57589087 1702.77075182 619.32349131 1701.06532561 617 1699 C617 1698.34 617 1697.68 617 1697 C616.4225 1696.896875 615.845 1696.79375 615.25 1696.6875 C612.64338842 1695.89103535 611.0264689 1694.80934723 609 1693 C609 1692.34 609 1691.68 609 1691 C607.68 1690.67 606.36 1690.34 605 1690 C605 1689.34 605 1688.68 605 1688 C604.01 1688 603.02 1688 602 1688 C600.29006566 1686.3777546 598.62652316 1684.70586575 597 1683 C596.236875 1682.443125 595.47375 1681.88625 594.6875 1681.3125 C593.8521875 1680.6628125 593.8521875 1680.6628125 593 1680 C593 1679.34 593 1678.68 593 1678 C592.34 1678 591.68 1678 591 1678 C591 1677.34 591 1676.68 591 1676 C590.01 1676 589.02 1676 588 1676 C588 1675.34 588 1674.68 588 1674 C587.443125 1673.7525 586.88625 1673.505 586.3125 1673.25 C583.57589087 1671.77075182 581.32349131 1670.06532561 579 1668 C579 1667.34 579 1666.68 579 1666 C578.443125 1665.9175 577.88625 1665.835 577.3125 1665.75 C574.26322081 1664.76104459 572.34810037 1663.15242534 570 1661 C570 1660.34 570 1659.68 570 1659 C569.01 1659 568.02 1659 567 1659 C567 1658.34 567 1657.68 567 1657 C566.34 1657 565.68 1657 565 1657 C565 1656.34 565 1655.68 565 1655 C564.21625 1654.7525 563.4325 1654.505 562.625 1654.25 C559.67682892 1652.84610901 559.0975223 1651.99324263 558 1649 C557.01 1649 556.02 1649 555 1649 C555 1648.34 555 1647.68 555 1647 C554.34 1647 553.68 1647 553 1647 C553 1646.34 553 1645.68 553 1645 C552.01 1645 551.02 1645 550 1645 C548.6256709 1643.70896357 547.29103643 1642.3743291 546 1641 C545.34 1640.67 544.68 1640.34 544 1640 C544 1639.01 544 1638.02 544 1637 C543.46375 1636.9175 542.9275 1636.835 542.375 1636.75 C539.08505507 1635.71107002 536.71535195 1634.11194041 534 1632 C533.125 1629.75 533.125 1629.75 533 1628 C535.88848289 1625.64182574 538.53773925 1624.25550193 542.04394531 1623.00708008 C543.54504852 1622.46685966 543.54504852 1622.46685966 545.07647705 1621.91572571 C546.68604279 1621.34835945 546.68604279 1621.34835945 548.328125 1620.76953125 C549.98433868 1620.1766053 549.98433868 1620.1766053 551.67401123 1619.57170105 C555.19705836 1618.31212805 558.72344336 1617.0622091 562.25 1615.8125 C564.6408513 1614.95961849 567.03147916 1614.10611032 569.421875 1613.25195312 C575.27867774 1611.16069343 581.13824921 1609.0773472 587 1607 C586.81806091 1606.48153 586.63612183 1605.96306 586.44866943 1605.42887878 C585.58509729 1602.96707469 584.72213099 1600.50505899 583.859375 1598.04296875 C583.54160095 1597.13620895 583.2238269 1596.22944916 582.89642334 1595.29521179 C581.15434392 1590.31813368 579.42402605 1585.33743904 577.71716309 1580.34817505 C576.79728578 1577.66357228 575.86792977 1574.98230517 574.93701172 1572.30151367 C574.46774125 1570.94289728 574.00276031 1569.58279362 573.54150391 1568.22143555 C572.85626506 1566.20226821 572.15633966 1564.18874669 571.453125 1562.17578125 C571.05254883 1561.00958252 570.65197266 1559.84338379 570.23925781 1558.6418457 C569.83030273 1557.77003662 569.42134766 1556.89822754 569 1556 C568.01 1555.67 567.02 1555.34 566 1555 C564.99095154 1553.11875916 564.99095154 1553.11875916 564.08764648 1550.61694336 C563.74266617 1549.67935684 563.39768585 1548.74177032 563.04225159 1547.77577209 C562.6763945 1546.74504074 562.31053741 1545.71430939 561.93359375 1544.65234375 C561.5419957 1543.57814682 561.15039764 1542.50394989 560.74693298 1541.39720154 C559.48746661 1537.93517066 558.24378823 1534.46769005 557 1531 C556.19802262 1528.79137686 555.39481465 1526.58320014 554.59033203 1524.37548828 C552.50914117 1518.65679575 550.44114754 1512.93343078 548.37719727 1507.20849609 C546.07964355 1500.83678446 543.77684874 1494.46696975 541.47265625 1488.09765625 C541.24004719 1487.45460667 541.00743813 1486.81155708 540.7677803 1486.14902115 C536.22134317 1473.5835538 531.62019896 1461.03851837 527 1448.5 C520.04778387 1429.63072341 513.18776788 1410.7292404 506.35687256 1391.81573486 C499.85124158 1373.80863649 493.26580304 1355.83264771 486.625 1337.875 C478.88709287 1316.94940355 471.29464808 1295.97527985 463.77350998 1274.97114563 C456.24975142 1253.9609691 448.61291153 1232.99696761 440.87109375 1212.06591797 C434.45601089 1194.71886368 428.13906363 1177.33967745 421.89935303 1159.92883301 C415.96441493 1143.37564005 409.91277487 1126.86791674 403.8125 1110.375 C396.26076588 1089.95652008 388.83891795 1069.4956749 381.5 1049 C373.82316008 1027.56103789 366.04220271 1006.16459366 358.140625 984.80712891 C351.09702194 965.76341144 344.17462007 946.67855307 337.30666351 927.57105255 C330.47903562 908.57724837 323.56594724 889.61737489 316.5625 870.6875 C308.84342472 849.82246474 301.27067043 828.90885901 293.7710762 807.96429062 C286.77920565 788.43907133 279.69886198 768.95014798 272.5 749.5 C264.98932255 729.20692733 257.6101183 708.87036012 250.3125 688.5 C243.21732851 668.69572605 236.06705924 648.91429159 228.78765869 629.17675781 C222.6896964 612.64093142 216.67390818 596.07651978 210.6875 579.5 C203.74036791 560.26399326 196.71875908 541.05739661 189.625 521.875 C181.05480371 498.69911284 172.65560341 475.46510477 164.34033203 452.19677734 C157.0223794 431.7467727 149.50991256 411.38404838 142 391 C142 351.73 142 312.46 142 272 C263.77 272 385.54 272 511 272 C511.33 310.94 511.66 349.88 512 390 C516.95 404.19 521.9 418.38 527 433 C531.81967537 447.08567098 531.81967537 447.08567098 534.1086731 453.86242676 C539.34387162 469.35418347 544.65565528 484.81737006 550.0625 500.25 C556.48982994 518.60002479 562.8184038 536.9832307 569.125 555.375 C569.62043243 556.81972253 570.11586497 558.26444502 570.61129761 559.70916748 C571.60684968 562.61236804 572.60237634 565.51557732 573.59788513 568.41879272 C573.84461912 569.13834515 574.09135311 569.85789757 574.34556389 570.59925461 C574.8448862 572.05546847 575.34419062 573.51168848 575.84347725 574.96791458 C581.09166378 590.27452274 586.35578309 605.5756203 591.625 620.875 C592.05303925 622.11786774 592.48107849 623.36073547 592.92208862 624.64126587 C594.6480944 629.65286245 596.37413493 634.66444704 598.10032654 639.67597961 C600.9607791 647.98095791 603.81934426 656.28658332 606.67670822 664.59262466 C608.68004052 670.41600761 610.68368278 676.2392839 612.6875 682.0625 C612.90705856 682.70055069 613.12661713 683.33860138 613.35282898 683.99598694 C619.86666327 702.92471874 626.40512986 721.84480267 632.96130371 740.75891113 C639.73942659 760.31768496 646.46377458 779.89471064 653.17919159 799.47507477 C660.307602 820.25958036 667.45830789 841.0361247 674.6421814 861.80154419 C679.36711059 875.46080715 684.07715516 889.12506029 688.765625 902.796875 C689.01124994 903.51310406 689.25687489 904.22933311 689.50994301 904.96726608 C691.50616027 910.78836409 693.50200281 916.60959059 695.49764633 922.43088531 C701.84172132 940.93592278 708.22181188 959.42716901 714.69348145 977.88806152 C720.28955841 993.86073287 725.73024268 1009.88469521 731.15612793 1025.91586304 C736.51204899 1041.73621367 741.94700995 1057.52581332 747.47412109 1073.28710938 C752.57123054 1087.82846174 757.55587317 1102.40597119 762.5 1117 C768.07936177 1133.46874549 773.73327153 1149.90834016 779.484375 1166.31787109 C784.4012707 1180.35237899 789.22339341 1194.41716151 794 1208.5 C799.75845407 1225.47674729 805.60791271 1242.4190527 811.53564453 1259.33740234 C814.65515188 1268.2461833 817.74989224 1277.16244226 820.79296875 1286.09765625 C821.0973436 1286.99096146 821.40171844 1287.88426666 821.71531677 1288.80464172 C823.16593342 1293.06492474 824.61239993 1297.32656543 826.0534668 1301.59008789 C826.5642284 1303.09393381 827.07504849 1304.59775986 827.5859375 1306.1015625 C827.81746017 1306.79093399 828.04898285 1307.48030548 828.28752136 1308.19056702 C829.19963817 1311.34581982 829.19963817 1311.34581982 831 1314 C831.22978043 1313.33127365 831.45956085 1312.6625473 831.69630432 1311.97355652 C851.37710247 1254.70204999 851.37710247 1254.70204999 860.57400513 1228.4024353 C865.74611881 1213.61198629 870.87969057 1198.80846037 876 1184 C881.8005756 1167.2257268 887.62124397 1150.45873112 893.47412109 1133.70263672 C898.86599365 1118.26555269 904.22977765 1102.8188404 909.58529663 1087.36911011 C914.49783045 1073.19830222 919.42795209 1059.0337923 924.375 1044.875 C930.12071224 1028.42952223 935.81771113 1011.96749153 941.5 995.5 C947.77977824 977.30096129 954.08734081 959.11209356 960.4375 940.9375 C965.14417797 927.46496232 969.82592606 913.98388123 974.5 900.5 C979.79569484 885.22326373 985.10574371 869.95168713 990.4375 854.6875 C995.98637231 838.80132809 1001.50041355 822.90329792 1007 807 C1012.80076014 790.22579025 1018.62124375 773.45873175 1024.47412109 756.70263672 C1029.5017716 742.30833074 1034.50603644 727.90602642 1039.5 713.5 C1045.12118037 697.28508708 1050.75918774 681.07619187 1056.41699219 664.87402344 C1061.82667854 649.38081969 1067.20899322 633.87821547 1072.58401489 618.37295532 C1077.5187538 604.13870421 1082.46953783 589.91018761 1087.4375 575.6875 C1092.98637231 559.80132809 1098.50041355 543.90329792 1104 528 C1109.79971866 511.22880191 1115.61844212 494.46449829 1121.47109985 477.71170044 C1126.19795324 464.18112824 1130.90026885 450.64220115 1135.59204102 437.09942627 C1142.65688781 416.70749467 1149.78467027 396.33916645 1157 376 C1164.59 376 1172.18 376 1180 376 C1180 330.46 1180 284.92 1180 238 C792.91 238 405.82 238 7 238 C7 264.07 7 290.14 7 317 C4.69 317 2.38 317 0 317 C0 316.34 0 315.68 0 315 C-1.32 315 -2.64 315 -4 315 C-4 314.34 -4 313.68 -4 313 C-5.32 313 -6.64 313 -8 313 C-8 312.34 -8 311.68 -8 311 C-8.7425 310.87625 -9.485 310.7525 -10.25 310.625 C-12.80141485 310.04513299 -14.7267573 309.26291261 -17 308 C-17 307.34 -17 306.68 -17 306 C-18.32 306 -19.64 306 -21 306 C-21 305.34 -21 304.68 -21 304 C-22.32 304 -23.64 304 -25 304 C-25 303.34 -25 302.68 -25 302 C-26.32 302 -27.64 302 -29 302 C-29 301.34 -29 300.68 -29 300 C-30.32 300 -31.64 300 -33 300 C-33 299.34 -33 298.68 -33 298 C-33.66 297.896875 -34.32 297.79375 -35 297.6875 C-38.83841009 296.80786436 -42.33096691 295.43030104 -46 294 C-46 293.34 -46 292.68 -46 292 C-47.32 292 -48.64 292 -50 292 C-50 291.34 -50 290.68 -50 290 C-51.32 290 -52.64 290 -54 290 C-54 289.34 -54 288.68 -54 288 C-55.32 288 -56.64 288 -58 288 C-58 287.34 -58 286.68 -58 286 C-59.32 286 -60.64 286 -62 286 C-62 285.34 -62 284.68 -62 284 C-63.32 284 -64.64 284 -66 284 C-66 283.34 -66 282.68 -66 282 C-67.32 282 -68.64 282 -70 282 C-70 281.34 -70 280.68 -70 280 C-70.7425 279.87625 -71.485 279.7525 -72.25 279.625 C-74.80141485 279.04513299 -76.7267573 278.26291261 -79 277 C-79 276.34 -79 275.68 -79 275 C-80.32 275 -81.64 275 -83 275 C-83 274.34 -83 273.68 -83 273 C-84.32 273 -85.64 273 -87 273 C-87 272.34 -87 271.68 -87 271 C-88.32 271 -89.64 271 -91 271 C-91 270.34 -91 269.68 -91 269 C-92.32 269 -93.64 269 -95 269 C-95 268.34 -95 267.68 -95 267 C-95.66 266.896875 -96.32 266.79375 -97 266.6875 C-100.83841009 265.80786436 -104.33096691 264.43030104 -108 263 C-108 262.34 -108 261.68 -108 261 C-109.32 261 -110.64 261 -112 261 C-112 260.34 -112 259.68 -112 259 C-113.32 259 -114.64 259 -116 259 C-116 258.34 -116 257.68 -116 257 C-117.32 257 -118.64 257 -120 257 C-120 256.34 -120 255.68 -120 255 C-121.32 255 -122.64 255 -124 255 C-124 254.34 -124 253.68 -124 253 C-125.32 253 -126.64 253 -128 253 C-128 252.34 -128 251.68 -128 251 C-129.32 251 -130.64 251 -132 251 C-132 250.34 -132 249.68 -132 249 C-132.7425 248.87625 -133.485 248.7525 -134.25 248.625 C-136.80141485 248.04513299 -138.7267573 247.26291261 -141 246 C-141 245.34 -141 244.68 -141 244 C-142.32 244 -143.64 244 -145 244 C-145 243.34 -145 242.68 -145 242 C-146.32 242 -147.64 242 -149 242 C-149 241.34 -149 240.68 -149 240 C-150.32 240 -151.64 240 -153 240 C-153 239.34 -153 238.68 -153 238 C-154.32 238 -155.64 238 -157 238 C-157 237.34 -157 236.68 -157 236 C-158.32 236 -159.64 236 -161 236 C-161 235.34 -161 234.68 -161 234 C-161.99 233.8453125 -161.99 233.8453125 -163 233.6875 C-166.83841009 232.80786436 -170.33096691 231.43030104 -174 230 C-174 229.34 -174 228.68 -174 228 C-175.32 228 -176.64 228 -178 228 C-178 227.34 -178 226.68 -178 226 C-179.32 226 -180.64 226 -182 226 C-182 225.34 -182 224.68 -182 224 C-183.32 224 -184.64 224 -186 224 C-186 223.34 -186 222.68 -186 222 C-187.32 222 -188.64 222 -190 222 C-190 221.34 -190 220.68 -190 220 C-191.32 220 -192.64 220 -194 220 C-194 219.34 -194 218.68 -194 218 C-194.7425 217.87625 -195.485 217.7525 -196.25 217.625 C-198.80141485 217.04513299 -200.7267573 216.26291261 -203 215 C-203 214.34 -203 213.68 -203 213 C-204.32 213 -205.64 213 -207 213 C-207 212.34 -207 211.68 -207 211 C-208.32 211 -209.64 211 -211 211 C-211 210.34 -211 209.68 -211 209 C-212.32 209 -213.64 209 -215 209 C-215 208.34 -215 207.68 -215 207 C-216.32 207 -217.64 207 -219 207 C-219 206.34 -219 205.68 -219 205 C-220.32 205 -221.64 205 -223 205 C-223 204.34 -223 203.68 -223 203 C-223.99 202.8453125 -223.99 202.8453125 -225 202.6875 C-228.83841009 201.80786436 -232.33096691 200.43030104 -236 199 C-236 198.34 -236 197.68 -236 197 C-237.32 197 -238.64 197 -240 197 C-240 196.34 -240 195.68 -240 195 C-241.32 195 -242.64 195 -244 195 C-244 194.34 -244 193.68 -244 193 C-245.32 193 -246.64 193 -248 193 C-248 192.34 -248 191.68 -248 191 C-249.32 191 -250.64 191 -252 191 C-252 190.34 -252 189.68 -252 189 C-253.32 189 -254.64 189 -256 189 C-256 188.34 -256 187.68 -256 187 C-257.11375 186.814375 -257.11375 186.814375 -258.25 186.625 C-260.80141485 186.04513299 -262.7267573 185.26291261 -265 184 C-265 183.34 -265 182.68 -265 182 C-266.32 182 -267.64 182 -269 182 C-269 181.34 -269 180.68 -269 180 C-270.32 180 -271.64 180 -273 180 C-273 179.34 -273 178.68 -273 178 C-274.32 178 -275.64 178 -277 178 C-277 177.34 -277 176.68 -277 176 C-278.32 176 -279.64 176 -281 176 C-281 175.34 -281 174.68 -281 174 C-282.32 174 -283.64 174 -285 174 C-285 173.34 -285 172.68 -285 172 C-285.99 171.8453125 -285.99 171.8453125 -287 171.6875 C-290.83841009 170.80786436 -294.33096691 169.43030104 -298 168 C-298 167.34 -298 166.68 -298 166 C-299.32 166 -300.64 166 -302 166 C-302 165.34 -302 164.68 -302 164 C-303.32 164 -304.64 164 -306 164 C-306 163.34 -306 162.68 -306 162 C-307.32 162 -308.64 162 -310 162 C-310 160.02 -310 158.04 -310 156 C-307.25727599 154.4864028 -304.50474367 152.99159291 -301.75 151.5 C-300.58404297 150.85611328 -300.58404297 150.85611328 -299.39453125 150.19921875 C-298.64042969 149.79316406 -297.88632812 149.38710937 -297.109375 148.96875 C-296.41811523 148.59169922 -295.72685547 148.21464844 -295.01464844 147.82617188 C-293 147 -293 147 -289 147 C-289 146.34 -289 145.68 -289 145 C-280.90602764 140.90399245 -272.79394117 136.87580584 -264.5625 133.0625 C-257.20655267 129.64547801 -250.04239188 125.92317249 -242.90234375 122.078125 C-241.60188595 121.38480963 -240.30110024 120.692109 -239 120 C-238.29633301 119.61908203 -237.59266602 119.23816406 -236.86767578 118.84570312 C-236.17013184 118.47896484 -235.47258789 118.11222656 -234.75390625 117.734375 C-234.12943604 117.40147461 -233.50496582 117.06857422 -232.86157227 116.72558594 C-231 116 -231 116 -227 116 C-227 115.34 -227 114.68 -227 114 C-225.49373047 113.25556641 -225.49373047 113.25556641 -223.95703125 112.49609375 C-222.57530801 111.81032448 -221.1938143 111.12409262 -219.8125 110.4375 C-219.0915918 110.07978516 -218.37068359 109.72207031 -217.62792969 109.35351562 C-211.8779049 106.48230113 -206.25971118 103.42684087 -200.671875 100.25 C-198 99 -198 99 -194 99 C-194 98.34 -194 97.68 -194 97 C-192.845 96.59136719 -191.69 96.18273437 -190.5 95.76171875 C-186.12413862 94.11884812 -182.09453706 92.05327217 -178 89.8125 C-171.73582945 86.43821481 -165.43037493 83.1824971 -159.04785156 80.03833008 C-155.44850307 78.25516251 -151.88995992 76.41618468 -148.359375 74.5 C-147.58980469 74.08363281 -146.82023438 73.66726562 -146.02734375 73.23828125 C-144.54160732 72.430428 -143.05962147 71.61562709 -141.58203125 70.79296875 C-138.04529976 68.87186508 -136.10881001 68 -132 68 C-132 67.34 -132 66.68 -132 66 C-130.845 65.59136719 -129.69 65.18273437 -128.5 64.76171875 C-124.12413862 63.11884812 -120.09453706 61.05327217 -116 58.8125 C-109.73582945 55.43821481 -103.43037493 52.1824971 -97.04785156 49.03833008 C-93.44850307 47.25516251 -89.88995992 45.41618468 -86.359375 43.5 C-85.58980469 43.08363281 -84.82023438 42.66726562 -84.02734375 42.23828125 C-82.54160732 41.430428 -81.05962147 40.61562709 -79.58203125 39.79296875 C-76.04529976 37.87186508 -74.10881001 37 -70 37 C-70 36.34 -70 35.68 -70 35 C-68.68 35 -67.36 35 -66 35 C-66 34.34 -66 33.68 -66 33 C-64.68 33 -63.36 33 -62 33 C-62 32.34 -62 31.68 -62 31 C-60.86691406 30.60167969 -59.73382813 30.20335938 -58.56640625 29.79296875 C-53.80977243 28.00674876 -49.40491101 25.71941282 -44.9375 23.3125 C-44.11403076 22.87405762 -43.29056152 22.43561523 -42.44213867 21.98388672 C-39.95888923 20.66060614 -37.47914692 19.33094744 -35 18 C-33.57050982 17.23530811 -32.14083431 16.47096251 -30.7109375 15.70703125 C-30.05399902 15.35600342 -29.39706055 15.00497559 -28.72021484 14.64331055 C-25.81505098 13.09257616 -22.90748293 11.54638185 -20 10 C-19.154375 9.54367188 -18.30875 9.08734375 -17.4375 8.6171875 C-13.93821927 6.77749212 -12.04533116 6 -8 6 C-8 5.34 -8 4.68 -8 4 C-6.68 4 -5.36 4 -4 4 C-4 3.34 -4 2.68 -4 2 C-2.68 2 -1.36 2 0 2 C0 1.34 0 0.68 0 0 Z " fill="#FFFFFF" transform="translate(321,9)"/>
</svg>
